<?xml version="1.0" encoding="utf-8"?>
<!-- Generator: Adobe Illustrator 27.4.0, SVG Export Plug-In . SVG Version: 6.00 Build 0)  -->
<svg version="1.1" id="Capa_1" xmlns="http://www.w3.org/2000/svg" xmlns:xlink="http://www.w3.org/1999/xlink" x="0px" y="0px"
	 viewBox="0 0 383 69" style="enable-background:new 0 0 383 69;" xml:space="preserve">
<g id="Grupo_388" transform="translate(0 65.386)">
	<g>
		<g>
			<g id="Grupo_387">
				<g id="Grupo_384" transform="translate(212.603 -61.789)">
					<path id="Trazado_214" d="M1.5,1.5h-2.3v11.4c-2.3-6-9.8-12.5-20.3-12.5c-14.2,0-23,10.8-23,22.7c0,11.7,8.6,22.7,23,22.7
						c9.2,0,16.3-4.5,20.3-12.5v7c0.3,11.2-8.6,20.5-19.8,20.8c-0.1,0-0.2,0-0.3,0c-4.6,0-9.1-1.6-12.8-4.5
						c-2.3-1.8-4.2-4.1-5.6-6.7h-2.6c3.8,8.6,12.8,13.4,21.4,13.4c4.9-0.2,9.6-1.9,13.5-4.8c4.7-3.6,8.5-9.4,8.5-18.5V1.5z
						 M-41.8,23.2C-41.8,11-32.6,2.6-21,2.6c7.7,0,12.8,3.3,16,7.4c2.8,3.8,4.4,8.3,4.5,13c0,5.5-2,10.7-5.8,14.7
						c-3.8,3.9-9.1,6.1-14.5,6C-35,43.8-41.7,33-41.8,23.2L-41.8,23.2z M9.3,44.8h2.3V21.1C11.6,9.3,17,2.6,26.2,2.6h0.7V0.4
						c-3.8,0.2-11.2,0.7-15.3,9.3V1.5H9.3V44.8z M68.7,1.5h-2.3v24.9c0,11.4-7.3,17.2-17.6,17.3c-11.9,0.2-17.6-7.3-17.6-19V1.5
						h-2.3v23.3c0,13,6.5,20.8,19.4,21.1c7.7,0.1,15.2-3,18.2-10.5c-0.1,3.6-0.1,6.5-0.1,9.4h2.3L68.7,1.5z M76.5,62.2h2.3V33.4
						c2.3,6,9.8,12.5,20.3,12.5c14,0,22.8-10.8,22.8-22.7c0-11.7-8.6-22.7-22.8-22.7c-9.2,0-16.3,4.5-20.3,12.3V1.5h-2.3V62.2z
						 M119.6,23.2c0.3,11.1-8.5,20.3-19.6,20.6c-0.3,0-0.6,0-0.9,0c-5.5,0.1-10.7-2-14.6-5.9c-3.8-3.9-6-9.2-5.9-14.6
						c-0.1-5.5,1.9-10.8,5.7-14.8c3.9-3.9,9.1-6,14.5-6C112.8,2.6,119.5,13.4,119.6,23.2L119.6,23.2z M123.9,23.2
						c0,13,9.8,22.7,22.8,22.7s22.8-9.7,22.8-22.7c0-12.9-9.8-22.7-22.8-22.7S123.9,10.2,123.9,23.2L123.9,23.2z M126.2,23.2
						c0-11.8,8.8-20.6,20.5-20.6s20.5,8.8,20.5,20.6s-8.8,20.6-20.5,20.6c-11.1,0.2-20.3-8.5-20.5-19.6
						C126.2,23.8,126.2,23.5,126.2,23.2L126.2,23.2z"/>
				</g>
				<g id="Grupo_385" transform="translate(50.293 -17.021)">
					<path id="Trazado_215" d="M1.5,1.5v-46.9h-13.6v1.7c-3.8-2-8-3.1-12.3-3c-16.5,0-24.4,13-24.4,24.1s7.9,24.1,24.4,24.1
						c4.3,0.1,8.5-1,12.3-3v3H1.5z M-13.5-22.6c0,6.6-5,11.4-10.9,11.4S-35.3-16-35.3-22.6s5-11.4,10.9-11.4S-13.5-29.2-13.5-22.6"
						/>
				</g>
				<g id="Grupo_386" transform="translate(58.867 -3.351)">
					<path id="Trazado_216" d="M1.5,1.5h13.6v-19.2c1.6,1.7,5.5,5.6,13.6,5.6c12.9,0,22.1-10.7,22.1-23.8c0-10.5-6-24.7-22.1-24.7
						c-5.5-0.2-10.7,2.2-14.1,6.5h-0.2v-5H1.5V1.5z M25.9-24.7c-6.2,0-11.3-5-11.4-11.2c0-0.1,0-0.2,0-0.3c0-5.4,3.9-11.6,11.4-11.6
						s11.4,6.2,11.4,11.6c0.1,6.2-4.8,11.4-11.1,11.5C26-24.7,26-24.7,25.9-24.7 M88.3-27.8c-1.9,2.4-4.1,4.2-8.3,4.2
						c-5.3,0-9.8-3.2-10.6-8.6h34c0.2-1.2,0.3-2.4,0.3-3.6c0-13.8-10.1-24.8-23.9-24.8S56-48.8,56-36.2c0,13.3,10.8,24,24,24
						c4.6,0,9.1-1.4,12.9-4.1c4.1-2.9,7.3-6.9,9.2-11.6L88.3-27.8z M69.6-41.3c0.6-2.7,3.3-7.8,10.3-7.8s9.7,5.1,10.3,7.8H69.6z"/>
				</g>
			</g>
		</g>
	</g>
</g>
</svg>
