<?xml version="1.0" encoding="UTF-8" standalone="no"?>
<!DOCTYPE svg PUBLIC "-//W3C//DTD SVG 1.1//EN" "http://www.w3.org/Graphics/SVG/1.1/DTD/svg11.dtd">
<svg width="100%" height="100%" viewBox="0 0 405 90" version="1.1" xmlns="http://www.w3.org/2000/svg" xmlns:xlink="http://www.w3.org/1999/xlink" xml:space="preserve" xmlns:serif="http://www.serif.com/" style="fill-rule:evenodd;clip-rule:evenodd;stroke-linejoin:round;stroke-miterlimit:2;">
    <g>
        <g transform="matrix(1,0,0,1,68.277,39.55)">
            <path d="M0,10.197C-2.34,21.097 -12.029,29.271 -23.629,29.271C-36.979,29.271 -47.801,18.448 -47.801,5.098C-47.801,-8.251 -36.979,-19.074 -23.629,-19.074C-12.029,-19.074 -2.34,-10.901 0,0L20.722,0C18.189,-22.256 -0.695,-39.55 -23.629,-39.55C-48.287,-39.55 -68.277,-19.56 -68.277,5.098C-68.277,29.756 -48.287,49.747 -23.629,49.747C-0.695,49.747 18.189,32.452 20.722,10.197L0,10.197Z" style="fill:rgb(94,97,104);fill-rule:nonzero;"/>
        </g>
        <g transform="matrix(1,0,0,1,63.596,25.028)">
            <path d="M0,14.522C-2.244,6.157 -9.876,0 -18.948,0C-28.021,0 -35.652,6.157 -37.897,14.522L0,14.522Z" style="fill:rgb(231,9,51);fill-rule:nonzero;"/>
        </g>
        <g transform="matrix(1,0,0,1,122.652,36.704)">
            <path d="M0,-4.579C-0.907,-8.208 -3.932,-10.627 -7.171,-10.627C-10.238,-10.627 -13.478,-8.381 -14.428,-4.579L0,-4.579ZM3.542,1.943C1.987,6.695 -1.814,9.374 -6.955,9.374C-13.349,9.374 -18.359,4.276 -18.359,-2.246C-18.359,-8.683 -13.349,-13.953 -7.171,-13.953C-1.426,-13.953 4.104,-9.201 4.061,-1.296L-14.645,-1.296C-14.169,3.326 -10.627,6.048 -6.955,6.048C-3.802,6.048 -1.556,4.536 -0.346,1.943L3.542,1.943Z" style="fill:rgb(231,9,51);fill-rule:nonzero;"/>
        </g>
        <g transform="matrix(1,0,0,1,137.166,22.751)">
            <path d="M0,23.37C-5.399,23.37 -9.33,20.475 -9.936,15.767L-6.221,15.767C-5.745,18.359 -3.196,19.958 0,19.958C3.456,19.958 5.572,18.272 5.572,16.329C5.572,14.773 4.968,13.607 -0.475,12.873C-5.875,12.096 -9.158,10.8 -9.158,6.609C-9.158,3.413 -6.394,0 -0.432,0C4.709,0 8.164,2.592 8.64,6.955L4.925,6.955C4.406,4.579 2.29,3.37 -0.432,3.37C-3.369,3.37 -5.486,4.752 -5.486,6.479C-5.486,8.078 -4.233,8.64 0.13,9.331C5.055,10.108 9.115,11.058 9.115,16.113C9.115,20.562 5.313,23.37 -0,23.37" style="fill:rgb(231,9,51);fill-rule:nonzero;"/>
        </g>
        <g transform="matrix(1,0,0,1,157.986,19.166)">
            <path d="M0,26.394C-5.184,26.998 -8.77,23.932 -8.77,18.273L-8.77,7.646L-11.793,7.646L-11.793,4.147L-8.77,4.147L-8.77,-0.604L-5.141,-0.604L-5.141,4.147L-0.086,4.147L-0.086,7.646L-5.141,7.646L-5.141,18.273C-5.141,22.204 -2.722,23.198 0,23.025L0,26.394Z" style="fill:rgb(231,9,51);fill-rule:nonzero;"/>
        </g>
        <g transform="matrix(1,0,0,1,178.461,23.832)">
            <path d="M0,21.728L-3.542,21.728L-3.542,19.309C-5.054,21.124 -7.3,22.247 -10.021,22.247C-15.464,22.247 -18.574,18.359 -18.574,12.873L-18.574,-0.519L-14.946,-0.519L-14.946,13.045C-14.946,16.587 -13.002,18.92 -9.46,18.92C-6.177,18.92 -3.672,16.457 -3.672,13.131L-3.672,-0.519L0,-0.519L0,21.728Z" style="fill:rgb(231,9,51);fill-rule:nonzero;"/>
        </g>
        <g transform="matrix(1,0,0,1,192.111,33.378)">
            <path d="M0,-7.214C-4.19,-7.214 -7.474,-3.499 -7.474,1.123C-7.474,5.659 -4.19,9.374 0,9.374C4.104,9.374 7.56,5.659 7.56,1.123C7.56,-3.499 4.104,-7.214 0,-7.214M11.231,12.182L7.688,12.182L7.688,8.597C6.134,10.886 3.282,12.743 0,12.743C-6.394,12.743 -11.146,7.516 -11.146,1.08C-11.146,-5.357 -6.394,-10.627 0,-10.627C3.196,-10.627 5.961,-8.856 7.56,-6.695L7.56,-19.957L11.231,-19.957L11.231,12.182Z" style="fill:rgb(231,9,51);fill-rule:nonzero;"/>
        </g>
        <g transform="matrix(1,0,0,1,-95.671,-222.407)">
            <path d="M306.442,267.967L302.77,267.967L302.77,245.72L306.442,245.72L306.442,267.967ZM306.442,242.35L302.77,242.35L302.77,237.987L306.442,237.987L306.442,242.35Z" style="fill:rgb(231,9,51);fill-rule:nonzero;"/>
        </g>
        <g transform="matrix(1,0,0,1,232.024,34.328)">
            <path d="M0,0.173C0,-4.449 -3.37,-8.207 -7.517,-8.207C-11.62,-8.207 -14.99,-4.449 -14.99,0.173C-14.99,4.709 -11.62,8.381 -7.517,8.381C-3.37,8.381 0,4.709 0,0.173M3.672,0.173C3.672,6.567 -1.167,11.75 -7.517,11.75C-13.823,11.75 -18.705,6.567 -18.705,0.173C-18.705,-6.306 -13.823,-11.577 -7.517,-11.577C-1.167,-11.577 3.672,-6.306 3.672,0.173" style="fill:rgb(231,9,51);fill-rule:nonzero;"/>
        </g>
        <g transform="matrix(1,0,0,1,247.748,22.751)">
            <path d="M0,23.327C-6.135,23.327 -11.146,18.143 -11.146,11.707C-11.146,5.27 -6.135,0 0,0C4.968,0 8.855,2.937 10.367,7.431L6.437,7.431C5.184,5.011 2.894,3.37 0,3.37C-4.104,3.37 -7.474,7.128 -7.474,11.707C-7.474,16.286 -4.104,19.958 0,19.958C2.938,19.958 5.227,18.316 6.437,15.896L10.367,15.896C8.898,20.389 4.968,23.327 0,23.327" style="fill:rgb(94,97,104);fill-rule:nonzero;"/>
        </g>
        <g transform="matrix(1,0,0,1,277.078,36.704)">
            <path d="M0,-4.579C-0.907,-8.208 -3.932,-10.627 -7.171,-10.627C-10.238,-10.627 -13.478,-8.381 -14.428,-4.579L0,-4.579ZM3.542,1.943C1.987,6.695 -1.814,9.374 -6.955,9.374C-13.349,9.374 -18.359,4.276 -18.359,-2.246C-18.359,-8.683 -13.349,-13.953 -7.171,-13.953C-1.426,-13.953 4.104,-9.201 4.061,-1.296L-14.645,-1.296C-14.169,3.326 -10.627,6.048 -6.955,6.048C-3.802,6.048 -1.556,4.536 -0.346,1.943L3.542,1.943Z" style="fill:rgb(94,97,104);fill-rule:nonzero;"/>
        </g>
        <g transform="matrix(1,0,0,1,294.27,41.63)">
            <path d="M0,-15.206C-3.845,-15.422 -7.128,-13.392 -7.128,-8.942L-7.128,3.931L-10.8,3.931L-10.8,-18.316L-7.258,-18.316L-7.258,-15.81C-5.573,-18.186 -2.549,-19.137 -0,-18.835L-0,-15.206Z" style="fill:rgb(94,97,104);fill-rule:nonzero;"/>
        </g>
        <g transform="matrix(1,0,0,1,306.105,40.203)">
            <path d="M0,-19.871L-2.851,-19.871L0.907,-25.746L5.4,-25.746L0,-19.871ZM4.147,-6.609C2.679,-5.313 0.044,-5.011 -2.592,-4.838C-7.43,-4.536 -8.51,-2.851 -8.51,-0.993C-8.51,1.426 -6.177,2.462 -3.326,2.462C0.476,2.462 4.061,0.82 4.147,-3.196L4.147,-6.609ZM4.19,2.808C2.592,4.752 0,5.875 -3.455,5.875C-8.034,5.875 -12.139,3.802 -12.139,-0.993C-12.139,-5.572 -8.813,-7.646 -3.066,-7.948C2.376,-8.208 4.147,-9.201 4.147,-10.973C4.147,-12.743 2.463,-14.082 -1.296,-14.082C-3.628,-14.082 -6.695,-13.348 -7.084,-10.108L-10.886,-10.108C-10.626,-14.558 -6.954,-17.452 -1.252,-17.452C4.709,-17.452 7.732,-14.687 7.732,-10.54L7.732,1.728C7.732,2.851 8.035,4.492 8.381,5.357L4.752,5.357C4.449,4.708 4.233,3.845 4.19,2.808" style="fill:rgb(94,97,104);fill-rule:nonzero;"/>
        </g>
        <g transform="matrix(1,0,0,1,349.431,22.751)">
            <path d="M0,22.809L-3.672,22.809L-3.672,8.943C-3.672,5.487 -5.313,3.371 -8.726,3.371C-11.75,3.371 -13.953,5.875 -13.953,9.202L-13.953,22.809L-17.581,22.809L-17.581,8.943C-17.581,5.487 -19.31,3.371 -22.592,3.371C-25.616,3.371 -27.862,5.875 -27.862,9.202L-27.862,22.809L-31.534,22.809L-31.534,0.562L-27.992,0.562L-27.992,2.981C-26.609,1.123 -24.536,0 -22.074,0C-18.92,0 -16.588,1.426 -15.205,3.802C-13.823,1.512 -11.447,0 -8.251,0C-3.11,0 0,3.499 0,9.029L0,22.809Z" style="fill:rgb(94,97,104);fill-rule:nonzero;"/>
        </g>
        <g transform="matrix(1,0,0,1,-95.671,-222.407)">
            <path d="M452.833,267.967L449.161,267.967L449.161,245.72L452.833,245.72L452.833,267.967ZM452.833,242.35L449.161,242.35L449.161,237.987L452.833,237.987L452.833,242.35Z" style="fill:rgb(94,97,104);fill-rule:nonzero;"/>
        </g>
        <g transform="matrix(1,0,0,1,370.856,22.751)">
            <path d="M0,23.327C-6.135,23.327 -11.146,18.143 -11.146,11.707C-11.146,5.27 -6.135,0 0,0C4.968,0 8.855,2.937 10.367,7.431L6.437,7.431C5.184,5.011 2.894,3.37 0,3.37C-4.104,3.37 -7.474,7.128 -7.474,11.707C-7.474,16.286 -4.104,19.958 0,19.958C2.938,19.958 5.227,18.316 6.437,15.896L10.367,15.896C8.898,20.389 4.968,23.327 0,23.327" style="fill:rgb(94,97,104);fill-rule:nonzero;"/>
        </g>
        <g transform="matrix(1,0,0,1,400.532,34.328)">
            <path d="M0,0.173C0,-4.449 -3.37,-8.207 -7.517,-8.207C-11.62,-8.207 -14.99,-4.449 -14.99,0.173C-14.99,4.709 -11.62,8.381 -7.517,8.381C-3.37,8.381 0,4.709 0,0.173M3.672,0.173C3.672,6.567 -1.167,11.75 -7.517,11.75C-13.823,11.75 -18.705,6.567 -18.705,0.173C-18.705,-6.306 -13.823,-11.577 -7.517,-11.577C-1.167,-11.577 3.672,-6.306 3.672,0.173" style="fill:rgb(94,97,104);fill-rule:nonzero;"/>
        </g>
        <g transform="matrix(1,0,0,1,108.46,53.604)">
            <path d="M0,8.388C-2.206,8.388 -4.008,6.524 -4.008,4.209C-4.008,1.895 -2.206,0 0,0C1.786,0 3.184,1.056 3.728,2.671L2.314,2.671C1.863,1.802 1.04,1.211 0,1.211C-1.477,1.211 -2.688,2.563 -2.688,4.209C-2.688,5.856 -1.477,7.176 0,7.176C1.056,7.176 1.879,6.586 2.314,5.716L3.728,5.716C3.199,7.331 1.786,8.388 0,8.388" style="fill:rgb(94,97,104);fill-rule:nonzero;"/>
        </g>
        <g transform="matrix(1,0,0,1,126.822,50.25)">
            <path d="M0,11.557L-1.305,11.557L-1.305,6.695C-1.305,5.453 -1.973,4.567 -3.262,4.567C-4.474,4.567 -5.359,5.468 -5.359,6.664L-5.359,11.557L-6.68,11.557L-6.68,0L-5.359,0L-5.359,4.365C-4.815,3.744 -4.023,3.356 -3.076,3.356C-1.118,3.356 0,4.753 0,6.742L0,11.557Z" style="fill:rgb(94,97,104);fill-rule:nonzero;"/>
        </g>
        <g transform="matrix(1,0,0,1,140.712,58.094)">
            <path d="M0,-0.591C-0.528,-0.125 -1.476,-0.017 -2.423,0.046C-4.163,0.154 -4.551,0.761 -4.551,1.429C-4.551,2.299 -3.712,2.671 -2.687,2.671C-1.32,2.671 -0.031,2.081 -0,0.637L-0,-0.591ZM0.016,2.796C-0.559,3.494 -1.491,3.898 -2.733,3.898C-4.38,3.898 -5.855,3.152 -5.855,1.429C-5.855,-0.218 -4.66,-0.964 -2.594,-1.072C-0.637,-1.166 0,-1.523 0,-2.16C0,-2.797 -0.605,-3.279 -1.957,-3.279C-2.796,-3.279 -3.898,-3.014 -4.038,-1.849L-5.405,-1.849C-5.313,-3.449 -3.992,-4.489 -1.941,-4.489C0.202,-4.489 1.29,-3.495 1.29,-2.005L1.29,2.407C1.29,2.81 1.398,3.401 1.522,3.712L0.218,3.712C0.091,3.423 0.023,3.112 0.016,2.796" style="fill:rgb(94,97,104);fill-rule:nonzero;"/>
        </g>
        <g transform="matrix(1,0,0,1,157.29,53.605)">
            <path d="M0,8.201L-1.305,8.201L-1.305,3.339C-1.305,2.112 -1.988,1.211 -3.262,1.211C-4.474,1.211 -5.359,2.112 -5.359,3.308L-5.359,8.201L-6.68,8.201L-6.68,0.201L-5.406,0.201L-5.406,1.071C-4.862,0.403 -4.039,0 -3.076,0C-1.118,0 0,1.397 0,3.386L0,8.201Z" style="fill:rgb(94,97,104);fill-rule:nonzero;"/>
        </g>
        <g transform="matrix(1,0,0,1,169.315,64.508)">
            <path d="M0,-9.677C-1.507,-9.677 -2.688,-8.341 -2.688,-6.679C-2.688,-5.048 -1.507,-3.712 0,-3.712C1.476,-3.712 2.718,-5.048 2.718,-6.679C2.718,-8.341 1.476,-9.677 0,-9.677M4.038,-3.075C4.038,-0.512 2.376,1.227 -0.078,1.227C-1.974,1.227 -3.449,0.218 -3.853,-1.413L-2.471,-1.413C-1.942,-0.217 -0.668,-0.046 -0.078,-0.046C1.973,-0.046 2.718,-1.63 2.718,-3.075L2.718,-3.914C2.144,-3.137 1.149,-2.5 0,-2.5C-2.3,-2.5 -4.008,-4.38 -4.008,-6.695C-4.008,-9.009 -2.3,-10.904 0,-10.904C1.18,-10.904 2.205,-10.237 2.765,-9.428L2.765,-10.702L4.038,-10.702L4.038,-3.075Z" style="fill:rgb(94,97,104);fill-rule:nonzero;"/>
        </g>
        <g transform="matrix(1,0,0,1,187.881,58.623)">
            <path d="M0,-1.648C-0.326,-2.953 -1.414,-3.823 -2.579,-3.823C-3.682,-3.823 -4.847,-3.015 -5.188,-1.648L0,-1.648ZM1.273,0.698C0.715,2.407 -0.652,3.37 -2.501,3.37C-4.8,3.37 -6.602,1.537 -6.602,-0.809C-6.602,-3.124 -4.8,-5.018 -2.579,-5.018C-0.513,-5.018 1.476,-3.31 1.46,-0.467L-5.266,-0.467C-5.095,1.195 -3.821,2.173 -2.501,2.173C-1.367,2.173 -0.56,1.629 -0.124,0.698L1.273,0.698Z" style="fill:rgb(94,97,104);fill-rule:nonzero;"/>
        </g>
        <g transform="matrix(1,0,0,1,211.652,52.316)">
            <path d="M0,9.49C-1.864,9.708 -3.153,8.604 -3.153,6.57L-3.153,2.749L-4.241,2.749L-4.241,1.49L-3.153,1.49L-3.153,-0.218L-1.849,-0.218L-1.849,1.49L-0.031,1.49L-0.031,2.749L-1.849,2.749L-1.849,6.57C-1.849,7.983 -0.979,8.341 0,8.278L0,9.49Z" style="fill:rgb(94,97,104);fill-rule:nonzero;"/>
        </g>
        <g transform="matrix(1,0,0,1,225.65,57.767)">
            <path d="M0,0.062C0,-1.6 -1.212,-2.952 -2.703,-2.952C-4.179,-2.952 -5.39,-1.6 -5.39,0.062C-5.39,1.693 -4.179,3.013 -2.703,3.013C-1.212,3.013 0,1.693 0,0.062M1.32,0.062C1.32,2.361 -0.419,4.225 -2.703,4.225C-4.971,4.225 -6.726,2.361 -6.726,0.062C-6.726,-2.268 -4.971,-4.163 -2.703,-4.163C-0.419,-4.163 1.32,-2.268 1.32,0.062" style="fill:rgb(94,97,104);fill-rule:nonzero;"/>
        </g>
        <g transform="matrix(1,0,0,1,250.027,57.426)">
            <path d="M0,-2.595C-1.476,-2.595 -2.719,-1.259 -2.719,0.403C-2.719,2.034 -1.476,3.37 0,3.37C1.491,3.37 2.672,2.034 2.672,0.403C2.672,-1.259 1.491,-2.595 0,-2.595M0,4.582C-1.181,4.582 -2.206,3.914 -2.766,3.091L-2.766,4.38L-4.039,4.38L-4.039,-7.177L-2.719,-7.177L-2.719,-2.408C-2.144,-3.185 -1.149,-3.822 0,-3.822C2.299,-3.822 3.992,-1.927 3.992,0.387C3.992,2.702 2.299,4.582 0,4.582" style="fill:rgb(94,97,104);fill-rule:nonzero;"/>
        </g>
        <g transform="matrix(1,0,0,1,268.095,58.623)">
            <path d="M0,-1.648C-0.326,-2.953 -1.414,-3.823 -2.579,-3.823C-3.682,-3.823 -4.847,-3.015 -5.188,-1.648L0,-1.648ZM1.273,0.698C0.715,2.407 -0.652,3.37 -2.501,3.37C-4.8,3.37 -6.602,1.537 -6.602,-0.809C-6.602,-3.124 -4.8,-5.018 -2.579,-5.018C-0.513,-5.018 1.476,-3.31 1.46,-0.467L-5.266,-0.467C-5.095,1.195 -3.821,2.173 -2.501,2.173C-1.367,2.173 -0.56,1.629 -0.124,0.698L1.273,0.698Z" style="fill:rgb(94,97,104);fill-rule:nonzero;"/>
        </g>
        <g transform="matrix(1,0,0,1,294.507,58.623)">
            <path d="M0,-1.648C-0.326,-2.953 -1.414,-3.823 -2.579,-3.823C-3.682,-3.823 -4.847,-3.015 -5.188,-1.648L0,-1.648ZM1.273,0.698C0.715,2.407 -0.652,3.37 -2.501,3.37C-4.8,3.37 -6.602,1.537 -6.602,-0.809C-6.602,-3.124 -4.8,-5.018 -2.579,-5.018C-0.513,-5.018 1.476,-3.31 1.46,-0.467L-5.266,-0.467C-5.095,1.195 -3.821,2.173 -2.501,2.173C-1.367,2.173 -0.56,1.629 -0.124,0.698L1.273,0.698Z" style="fill:rgb(94,97,104);fill-rule:nonzero;"/>
        </g>
        <g transform="matrix(1,0,0,1,306.58,56.928)">
            <path d="M0,1.756L-2.05,4.878L-3.666,4.878L-0.808,0.746L-3.479,-3.122L-1.863,-3.122L0,-0.264L1.864,-3.122L3.479,-3.122L0.793,0.746L3.666,4.878L2.051,4.878L0,1.756Z" style="fill:rgb(94,97,104);fill-rule:nonzero;"/>
        </g>
        <g transform="matrix(1,0,0,1,321.106,53.604)">
            <path d="M0,8.388C-2.206,8.388 -4.008,6.524 -4.008,4.209C-4.008,1.895 -2.206,0 0,0C1.786,0 3.184,1.056 3.728,2.671L2.314,2.671C1.863,1.802 1.04,1.211 0,1.211C-1.477,1.211 -2.688,2.563 -2.688,4.209C-2.688,5.856 -1.477,7.176 0,7.176C1.056,7.176 1.879,6.586 2.314,5.716L3.728,5.716C3.199,7.331 1.786,8.388 0,8.388" style="fill:rgb(94,97,104);fill-rule:nonzero;"/>
        </g>
        <g transform="matrix(-1,0,0,1,762.635,-171.492)">
            <rect x="428.493" y="221.741" width="1.32" height="11.557" style="fill:rgb(94,97,104);"/>
        </g>
        <g transform="matrix(1,0,0,1,349.226,53.993)">
            <path d="M0,7.813L-1.273,7.813L-1.273,6.943C-1.817,7.595 -2.625,8 -3.604,8C-5.561,8 -6.68,6.601 -6.68,4.628L-6.68,-0.187L-5.375,-0.187L-5.375,4.691C-5.375,5.964 -4.676,6.803 -3.401,6.803C-2.222,6.803 -1.32,5.917 -1.32,4.722L-1.32,-0.187L0,-0.187L0,7.813Z" style="fill:rgb(94,97,104);fill-rule:nonzero;"/>
        </g>
        <g transform="matrix(1,0,0,1,360.787,53.605)">
            <path d="M0,8.403C-1.942,8.403 -3.355,7.362 -3.573,5.669L-2.237,5.669C-2.066,6.601 -1.15,7.175 0,7.175C1.242,7.175 2.003,6.57 2.003,5.871C2.003,5.311 1.786,4.892 -0.171,4.629C-2.113,4.348 -3.294,3.882 -3.294,2.376C-3.294,1.226 -2.3,0 -0.156,0C1.692,0 2.936,0.931 3.106,2.5L1.771,2.5C1.584,1.646 0.823,1.211 -0.156,1.211C-1.212,1.211 -1.974,1.708 -1.974,2.329C-1.974,2.904 -1.522,3.106 0.046,3.354C1.817,3.634 3.277,3.976 3.277,5.794C3.277,7.393 1.91,8.403 0,8.403" style="fill:rgb(94,97,104);fill-rule:nonzero;"/>
        </g>
        <g transform="matrix(1,0,0,1,-95.671,-170.715)">
            <path d="M469.058,232.521L467.738,232.521L467.738,224.521L469.058,224.521L469.058,232.521ZM469.058,223.31L467.738,223.31L467.738,221.741L469.058,221.741L469.058,223.31Z" style="fill:rgb(94,97,104);fill-rule:nonzero;"/>
        </g>
        <g transform="matrix(1,0,0,1,385.381,53.806)">
            <path d="M0,8L-1.413,8L-4.318,0L-2.92,0L-0.699,6.369L1.507,0L2.904,0L0,8Z" style="fill:rgb(94,97,104);fill-rule:nonzero;"/>
        </g>
        <g transform="matrix(1,0,0,1,401.88,58.623)">
            <path d="M0,-1.648C-0.326,-2.953 -1.414,-3.823 -2.579,-3.823C-3.682,-3.823 -4.847,-3.015 -5.188,-1.648L0,-1.648ZM1.273,0.698C0.715,2.407 -0.652,3.37 -2.501,3.37C-4.8,3.37 -6.602,1.537 -6.602,-0.809C-6.602,-3.124 -4.8,-5.018 -2.579,-5.018C-0.513,-5.018 1.476,-3.31 1.46,-0.467L-5.266,-0.467C-5.095,1.195 -3.821,2.173 -2.501,2.173C-1.367,2.173 -0.56,1.629 -0.124,0.698L1.273,0.698Z" style="fill:rgb(94,97,104);fill-rule:nonzero;"/>
        </g>
    </g>
</svg>
