<svg version="1.1" id="Layer_1" xmlns="http://www.w3.org/2000/svg" x="0" y="0" width="168.757" height="52.766" xml:space="preserve"><path fill="#949698" d="M73.441 29.726v-4.038c0-2.336-1.784-3.484-5.354-3.484h-4.03c-1.371 0-2.567.234-3.601.729-1.333.653-2.013 1.562-2.013 2.775v4.019c0 1.239.681 2.15 2.013 2.733 1.009.445 2.212.679 3.601.679h4.03c1.388 0 2.561-.209 3.498-.654 1.248-.587 1.856-1.519 1.856-2.759m-2.438 0c0 .493-.409.864-1.175 1.122-.567.189-1.153.263-1.808.263H64.1c-.75 0-1.393-.072-1.95-.238-.842-.233-1.271-.604-1.271-1.146v-4.019c0-.534.409-.933 1.23-1.214.579-.184 1.242-.253 1.966-.253h3.946c1.969 0 2.983.417 2.983 1.283l-.001 4.202zm22.205 2.502c0-.752-.301-1.117-.908-1.117h-9.087c-2.209 0-3.306-.45-3.306-1.385v-4.272c0-.819.961-1.213 2.91-1.213h9.409c.618 0 .938-.352.938-1.032 0-.675-.318-1.006-.938-1.006h-9.601c-3.426 0-5.137 1.104-5.137 3.321v4.297c0 1.378.625 2.312 1.928 2.825.837.33 2.082.489 3.728.489h8.938c.762.002 1.126-.303 1.126-.907m33.65-3.124v1.181c0 1.073.565 1.868 1.749 2.405.885.422 1.918.629 3.145.629h4.502c3.22-.044 5.742.418 5.803-2.992v-4.505c0-.935-.451-1.731-1.346-2.432-.635-.515-1.612-.818-2.953-.938-.521-.064-7.447-.09-9.019-.09-.588 0-.891.306-.891.908 0 .75.303 1.125.891 1.125.112 0 .306-.024.587-.024h6.528c2.556 0 3.774.28 3.703 1.803h-8.124c-3.154.107-4.439.973-4.575 2.93m4.8-.847l7.973-.004v2.24c0 .837-1.221.771-3.664.771.051 0-.139.025-.563.025-.439.021-.873.021-1.261.021-3.293 0-4.968-.027-4.968-1.556.002-1.453 1.049-1.513 2.483-1.497m35.711 3.971v-6.471c0-2.359-1.689-3.555-5.068-3.555-1.362 0-2.278.026-2.701.07-.936.119-1.785.396-2.535.864a6.342 6.342 0 0 0-2.516-.885c-.324-.049-1.213-.03-2.694-.049-5.683-.058-5.313.415-5.28 3.555v6.471c0 .604.307.909.911.909.548 0 .896-.024 1.036-.069.326-.118.486-.396.486-.84v-6.704c0-.89-.348-1.31 3.101-1.333.241-.003.491 0 .825.024.307 0 .498.025.563.025.756 0 1.273.069 1.592.233.451.231.688.651.688 1.308v6.446c0 .604.31.909.912.909.539 0 .896-.024 1.039-.069.328-.118.487-.396.487-.84V25.8c0-1.049.806-1.561 2.418-1.561.064 0 .231-.025.521-.025.281-.024.515-.024.707-.024 2.062 0 3.093.443 3.093 1.309v6.729c0 .442.166.722.495.84.113.045.47.069 1.033.069.605 0 .887-.305.887-.909m-41.733-8.856c0-.745-.297-1.116-.885-1.123-6.354-.059-8.834 1.123-8.834 3.389l-.054 6.635c0 .608.312.912.925.912.563 0 .907-.025 1.051-.071.33-.118.496-.372.496-.841v-6.635c0-.935 2.404-1.38 4.256-1.38h.564c.24 0 1.524.028 1.596.028.588 0 .885-.307.885-.914m-13.48 3.99l.029-2.143c0-1.077-.563-1.869-1.743-2.406-.887-.421-1.924-.63-3.147-.63h-4.496c-1.459 0-2.705.231-3.711.675-1.387.609-2.092 1.544-2.092 2.804v4.021c0 .934.455 1.728 1.342 2.429.629.517 1.608.918 2.951 1.034.518.07 7.819-.008 9.391-.008.588 0 .896-.307.896-.91 0-.75-.309-1.117-.896-1.117-.113 0-.292.018-.588.018h-6.896c-2.558 0-3.782-.771-3.713-2.291h10.74c1.046.024 1.916-.361 1.933-1.476m-3.114-.602c-.338-.01-9.629.003-9.629.003v-1.265c0-.842 1.226-1.258 3.666-1.258-.051 0 .14-.024.561-.024.439-.025.867-.025 1.27-.025 3.283 0 4.928.399 4.928 1.217l.006.655c-.014.708-.466.708-.802.697m-73.33 2.966v-4.038c0-2.336-1.779-3.484-5.349-3.484h-4.035c-1.362 0-2.558.234-3.591.729-1.346.653-2.022 1.562-2.022 2.775v4.019c0 1.239.677 2.15 2.022 2.733 1.008.445 2.203.679 3.591.679h4.035c1.387 0 2.562-.209 3.498-.654 1.247-.587 1.851-1.519 1.851-2.759m-2.433 0c0 .493-.408.864-1.179 1.122-.566.189-1.149.263-1.808.263h-3.916c-.753 0-1.388-.072-1.95-.238-.848-.233-1.268-.604-1.268-1.146v-4.019c0-.534.405-.933 1.222-1.214.586-.184 1.242-.253 1.97-.253h3.942c1.973 0 2.987.417 2.987 1.283v4.202zM8.943 22.203c.431 0 1.937.033 2.358.033 3.375 0 5.069 1.193 5.069 3.555v6.466c0 .61-.286.915-.885.915-.571 0-.924-.025-1.047-.07-.325-.119-.485-.398-.485-.845v-6.725c0-.864-1.034-1.313-3.098-1.313-.193 0-3.899.021-3.899.021-.937 0-1.851.044-1.851.044-1.421.021-1.268 1.005-1.268 1.005v6.938c0 .604-.302.909-.917.909-.54 0-.892-.023-1.033-.069-.329-.117-.489-.396-.489-.84V25.31c.012-3.374.229-3.104 5.558-3.107m48.751 1.453c.23-.258.323-.521.323-.725 0-.516-.423-.772-1.29-.772-.54 0-.919.115-1.103.376l-6.524 7.964-6.571-7.964c-.208-.261-.591-.376-1.102-.376-.889 0-1.319.257-1.319.772 0 .204.093.467.328.725l7.75 9.294c.234.281.541.445.889.445.357 0 .664-.164.918-.468m79.976-25.2l-.125.271a66.615 66.615 0 0 0-2.128-.835c-13.354-5.015-26.567-6.157-29.604-2.728-2.142 2.407 1.383 6.676 8.846 10.841l.499.273h-8.634c-7.935-4.635-12.087-9.726-9.244-12.923 3.853-4.34 19.184-3.161 34.146 2.465a85.174 85.174 0 0 1 6.244 2.636M94.72 2.63c2.842 3.197-1.311 8.288-9.2 12.899l-8.669.022.489-.273c7.474-4.165 10.998-8.434 8.857-10.841-3.04-3.43-16.258-2.287-29.608 2.728-.73.271-1.431.551-2.132.835l-.12-.271a83.008 83.008 0 0 1 6.234-2.635C75.552-.531 90.878-1.71 94.72 2.63m-13.55 0c2.848 3.197-1.315 8.288-9.206 12.899l-8.665.022.494-.273c7.469-4.165 10.989-8.434 8.847-10.841-3.037-3.43-16.253-2.287-29.607 2.728-.727.271-1.434.551-2.132.835l-.115-.271a81.934 81.934 0 0 1 6.239-2.635C61.998-.531 77.318-1.71 81.17 2.63M9.735 51.281v-1.694h1.436v-.417H9.735v-1.039h2.373v-.417H9.289v3.567m2.653.001l.471-.959h1.982l.486.959h.485l-1.775-3.566h-.373l-1.755 3.566m1.942-2.951l.791 1.574H12.62l.785-1.574zm4.741 2.951c.372 0 .665-.092.884-.284.22-.191.326-.458.326-.788a1.01 1.01 0 0 0-.146-.549 1.263 1.263 0 0 0-.433-.404.616.616 0 0 0 .239-.271.76.76 0 0 0 .087-.377c0-.299-.094-.518-.273-.669-.18-.152-.446-.226-.798-.226H15.91v3.566m.447-1.738h1.875c.206 0 .365.061.485.178a.684.684 0 0 1 .173.484c0 .205-.06.363-.18.482-.113.119-.272.18-.478.18h-1.875v-1.324zm0-1.41h1.716c.199 0 .345.039.438.125.101.087.147.206.147.378 0 .159-.053.278-.153.364s-.245.125-.432.125h-1.716v-.992zm4.322 3.15v-1.563h1.383l.897 1.563h.499l-.898-1.563a1.03 1.03 0 0 0 .619-.351c.152-.185.232-.403.232-.661 0-.312-.1-.557-.298-.729-.2-.179-.473-.265-.825-.265h-2.055v3.566m.446-3.147h1.603c.212 0 .372.055.492.159a.55.55 0 0 1 .173.431c0 .191-.06.337-.173.438-.12.099-.285.146-.512.146h-1.583v-1.174zm3.55-.438h.445v3.587h-.445v-3.587zm3.844 3.059a1.33 1.33 0 0 1-.745.205c-.405 0-.737-.14-.998-.411-.266-.271-.399-.614-.399-1.039 0-.424.133-.768.399-1.046.26-.271.593-.41.998-.41.26 0 .499.061.711.186.22.12.379.286.486.497l.372-.266a1.709 1.709 0 0 0-.665-.621 1.947 1.947 0 0 0-.905-.212c-.538 0-.978.179-1.33.529s-.524.801-.524 1.343c0 .536.172.986.524 1.337.353.352.792.529 1.33.529.359 0 .686-.086.971-.252a1.67 1.67 0 0 0 .678-.713l-.359-.266a1.595 1.595 0 0 1-.544.61m1.642.529l.472-.959h1.981l.485.959h.485l-1.775-3.566h-.373l-1.755 3.566m1.943-2.951l.791 1.574h-1.576l.785-1.574zm2.953 2.95v-2.667l2.333 2.667h.227v-3.567h-.446v2.661l-2.321-2.661h-.239v3.567m5.146 0v-3.15h1.509v-.417h-3.464v.417h1.51v3.15m4.807 0v-1.694h1.436v-.417h-1.436v-1.039h2.373v-.417h-2.818v3.567m3.716.001v-1.563h1.383l.898 1.563h.498l-.898-1.563a1.002 1.002 0 0 0 .851-1.012c0-.312-.099-.557-.299-.729-.199-.179-.472-.265-.825-.265h-2.055v3.566m.447-3.147h1.603c.212 0 .372.055.492.159a.55.55 0 0 1 .173.431c0 .191-.06.337-.173.438-.12.099-.286.146-.512.146h-1.583v-1.174zm3.253 3.15l.471-.959h1.981l.486.959h.485l-1.775-3.566h-.373l-1.755 3.566m1.942-2.951l.791 1.574h-1.576l.785-1.574zm2.952 2.95v-2.667l2.334 2.667h.226v-3.567h-.445v2.661l-2.322-2.661h-.238v3.567m5.106 1.417l.199.04c.126.02.253.026.366.026.239 0 .418-.054.545-.146a.515.515 0 0 0 .187-.424.515.515 0 0 0-.18-.418c-.12-.092-.3-.139-.526-.139h-.066v-.265h.014a1.9 1.9 0 0 0 .97-.252c.292-.165.519-.404.679-.715l-.359-.266a1.577 1.577 0 0 1-.545.608 1.33 1.33 0 0 1-.744.206 1.32 1.32 0 0 1-.997-.411c-.266-.271-.4-.614-.4-1.039 0-.424.134-.768.4-1.046.258-.271.591-.41.997-.41.258 0 .498.061.711.186.22.119.379.285.485.498l.372-.264a1.695 1.695 0 0 0-.665-.621 1.935 1.935 0 0 0-.904-.213c-.539 0-.978.179-1.33.529-.354.353-.526.802-.526 1.344 0 .536.173.985.526 1.338.298.298.665.476 1.11.51v.516h.153c.159 0 .278.026.352.08a.318.318 0 0 1 .113.257.252.252 0 0 1-.106.219.583.583 0 0 1-.319.073c-.047 0-.093 0-.14-.007l-.153-.02c-.106-.014-.259-.048-.472-.086v.244c.101.029.18.049.253.068m2.926-1.416l.473-.959h1.981l.485.959h.485l-1.775-3.566h-.373l-1.755 3.566m1.942-2.951l.791 1.574h-1.576l.785-1.574zm2.514-.637h.445v3.587h-.445v-3.587zm2.067 3.528c.306.1.638.151.991.151.472 0 .851-.104 1.143-.324.292-.217.438-.488.438-.819a.918.918 0 0 0-.318-.708c-.213-.192-.499-.313-.864-.352-.041 0-.113-.014-.226-.025a3.573 3.573 0 0 0-.293-.015c-.233 0-.426-.021-.592-.06s-.286-.094-.365-.152a.387.387 0 0 1-.133-.145.39.39 0 0 1-.04-.174c0-.158.086-.284.266-.391.172-.104.399-.159.665-.159.259 0 .512.048.751.134.239.092.472.225.698.402l.259-.37a3.037 3.037 0 0 0-.825-.438 2.763 2.763 0 0 0-.891-.146c-.412 0-.744.094-1.004.277-.259.187-.385.424-.385.708 0 .153.045.298.133.424a.955.955 0 0 0 .379.313c.126.06.286.104.465.139.22.047.466.066.738.066l.272.02c.266.021.473.086.618.205a.51.51 0 0 1 .22.424c0 .219-.107.396-.313.535-.207.139-.473.213-.805.213-.273 0-.546-.054-.817-.159a2.867 2.867 0 0 1-.785-.437l-.26.383c.282.216.575.374.88.48m5.646-3.506v3.566h1.536c.579 0 1.037-.158 1.376-.482.339-.324.505-.755.505-1.291 0-.528-.172-.966-.519-1.298-.338-.331-.798-.495-1.362-.495m1.037.793c.259.245.386.576.386.993s-.127.755-.379.999c-.253.245-.598.365-1.044.365h-1.09v-2.734h1.09c.431 0 .778.125 1.037.377zm4.594 2.772v-.417h-2.52v-1.277h1.436v-.417h-1.436v-1.039h2.374v-.417h-2.82v3.567m8.16-.528c-.213.14-.466.205-.746.205-.404 0-.736-.14-.997-.411-.266-.271-.399-.614-.399-1.039 0-.424.133-.768.399-1.046.26-.271.592-.41.997-.41.26 0 .5.061.712.186.222.12.38.286.486.497l.372-.266a1.713 1.713 0 0 0-.664-.621 1.951 1.951 0 0 0-.906-.212c-.537 0-.977.179-1.329.529-.353.351-.525.801-.525 1.343 0 .536.172.986.525 1.337.352.352.792.529 1.329.529.359 0 .686-.086.973-.252.293-.164.519-.402.678-.713l-.358-.266a1.642 1.642 0 0 1-.547.61m3.928-4.607h-.492l-.678 1.133h.299m1.611 4.002v-.417h-2.521v-1.277h1.438v-.417h-1.438v-1.039h2.375v-.417h-2.819v3.567h2.965zm1.089.001v-1.563h1.384l.897 1.563h.498l-.897-1.563a1.001 1.001 0 0 0 .849-1.012c0-.312-.1-.557-.299-.729-.199-.179-.473-.265-.824-.265H91.08v3.566m.446-3.147h1.603c.213 0 .373.055.492.159.112.1.174.245.174.431a.563.563 0 0 1-.174.438c-.119.099-.285.146-.513.146h-1.582v-1.174zm3.245 3.15l.473-.959h1.98l.486.959h.484l-1.775-3.566h-.373l-1.756 3.566m1.944-2.951l.79 1.574h-1.575l.785-1.574zm2.926 2.95v-2.78l1.422 2.105 1.416-2.105v2.78h.445v-3.567h-.404l-1.457 2.184-1.449-2.184h-.411v3.567m4.779-3.587h.444v3.587h-.444v-3.587zm3.532 4.057h.5l-.24-.488c.373-.159.664-.385.865-.688.204-.305.305-.662.305-1.065 0-.542-.18-.984-.531-1.343-.352-.352-.799-.528-1.33-.528-.538 0-.979.178-1.33.528-.354.351-.525.801-.525 1.336 0 .536.174.979.525 1.33.346.357.777.537 1.29.537h.278m-.253-.42c-.406 0-.73-.139-.99-.41-.26-.271-.393-.615-.393-1.032 0-.423.133-.768.397-1.046.26-.271.593-.41.998-.41s.737.141.998.41c.266.271.397.623.397 1.046 0 .318-.08.597-.231.833-.16.246-.38.418-.658.531l-.181-.372h-.5l.222.45h-.059zm2.566-3.234v2.429c0 .438.113.755.347.946.226.191.604.285 1.131.285.523 0 .902-.094 1.129-.285.232-.191.346-.51.346-.946v-2.429h-.445v2.311c0 .37-.066.615-.205.74-.14.126-.412.192-.824.192-.405 0-.678-.066-.817-.192-.14-.125-.213-.37-.213-.74v-2.311m6.46 3.565v-.417h-2.52v-1.277h1.437v-.417h-1.437v-1.039h2.373v-.417h-2.818v3.567m5.844-3.565v3.566h1.536c.578 0 1.037-.158 1.376-.482s.505-.755.505-1.291c0-.528-.172-.966-.519-1.298-.34-.331-.799-.495-1.362-.495m1.038.793c.259.245.386.576.386.993s-.127.755-.38.999c-.252.245-.598.365-1.043.365h-1.091v-2.734h1.091c.432 0 .777.125 1.037.377zm4.593 2.772v-.417h-2.519v-1.277h1.437v-.417h-1.437v-1.039h2.375v-.417h-2.82v3.567m4.057.001v-1.563h1.668c.319 0 .578-.098.771-.29.192-.191.293-.442.293-.748 0-.298-.101-.535-.3-.707-.198-.173-.479-.259-.823-.259h-2.056v3.566m.447-3.149h1.602c.213 0 .373.055.492.159.113.1.172.245.172.431 0 .191-.059.337-.172.438-.119.099-.285.146-.512.146h-1.582v-1.174zm3.377-.416v2.429c0 .438.112.755.346.946.227.191.604.285 1.131.285.525 0 .904-.094 1.131-.285.23-.191.344-.51.344-.946v-2.429h-.445v2.311c0 .37-.064.615-.205.74-.14.126-.412.192-.823.192-.406 0-.679-.066-.818-.192-.139-.125-.213-.37-.213-.74v-2.311m3.5-.022h.445v3.587h-.445v-3.587zm2.069 3.528c.306.1.639.151.99.151.473 0 .852-.104 1.145-.324.293-.217.438-.488.438-.819a.917.917 0 0 0-.317-.708c-.214-.192-.499-.313-.864-.352-.041 0-.113-.014-.227-.025a3.597 3.597 0 0 0-.293-.015c-.232 0-.426-.021-.592-.06s-.287-.094-.365-.152a.387.387 0 0 1-.133-.145.39.39 0 0 1-.041-.174c0-.158.088-.284.268-.391.172-.104.398-.159.664-.159.26 0 .512.048.751.134.239.092.474.225.698.402l.26-.37a3.061 3.061 0 0 0-.824-.438 2.774 2.774 0 0 0-.892-.146c-.411 0-.744.094-1.005.277-.258.187-.385.424-.385.708 0 .153.047.298.133.424s.213.231.379.313c.127.06.287.104.467.139.219.047.465.066.736.066l.272.02c.267.021.474.086.618.205.146.113.22.251.22.424 0 .219-.106.396-.313.535-.205.139-.473.213-.805.213-.271 0-.545-.054-.816-.159a2.891 2.891 0 0 1-.784-.437l-.261.383c.281.216.574.374.878.48m7.094-3.348h.452v3.428h-.452v-3.428zm5.408 1.178c-.174.079-.42.119-.746.119-.313 0-.559-.04-.73-.119-.18-.078-.266-.19-.266-.33 0-.146.094-.266.271-.352.18-.094.42-.139.725-.139.307 0 .553.045.732.132.179.093.271.206.271.345 0 .152-.085.265-.257.344m.631.012a.666.666 0 0 0 .093-.337c0-.285-.133-.504-.399-.662a1.358 1.358 0 0 0-.465-.191 2.773 2.773 0 0 0-.604-.061c-.452 0-.812.08-1.069.246-.267.164-.398.39-.398.668a.63.63 0 0 0 .1.344.601.601 0 0 0 .112.152.903.903 0 0 0 .167.127 1.081 1.081 0 0 0-.465.361.873.873 0 0 0-.153.518c0 .351.153.629.458.834.313.205.727.311 1.25.311.52 0 .938-.104 1.244-.317.305-.212.459-.488.459-.833a.873.873 0 0 0-.154-.511 1.096 1.096 0 0 0-.458-.361c.121-.089.216-.188.282-.288zm-2.334.675c.191-.098.512-.151.957-.151s.758.055.951.151c.193.1.285.258.285.49 0 .219-.111.396-.338.528-.22.134-.521.199-.898.199s-.684-.065-.902-.205c-.227-.133-.341-.305-.341-.522a.51.51 0 0 1 .286-.49zm7.087-1.349a2.402 2.402 0 0 0-.731-.443 2.349 2.349 0 0 0-.822-.14c-.586 0-1.059.165-1.424.489-.365.331-.545.755-.545 1.271 0 .516.199.947.59 1.291.395.344.897.516 1.512.516.484 0 .884-.111 1.182-.344.301-.231.453-.536.453-.9 0-.356-.16-.653-.479-.887-.318-.23-.725-.351-1.217-.351a2.88 2.88 0 0 0-.771.099c-.133.033-.259.08-.387.127a6.412 6.412 0 0 0-.385.178 1.19 1.19 0 0 1 .479-.788c.268-.19.605-.283 1.004-.283.227 0 .446.04.665.118.213.088.419.199.618.358m-1.975.721c.254-.072.506-.111.766-.111.338 0 .631.078.863.237.231.165.354.357.354.591 0 .225-.113.416-.34.574-.227.165-.498.245-.83.245-.413 0-.771-.113-1.078-.346-.313-.225-.484-.502-.523-.826.275-.166.536-.291.788-.364zm3.138 1.165c.279.271.572.472.885.597.313.126.672.19 1.07.19.505 0 .918-.11 1.242-.336.326-.231.492-.504.492-.828a.81.81 0 0 0-.146-.489 1.061 1.061 0 0 0-.435-.33.951.951 0 0 0 .24-.277.873.873 0 0 0 .072-.353.818.818 0 0 0-.357-.694c-.24-.172-.56-.259-.951-.259-.153 0-.307.015-.453.033a2.731 2.731 0 0 0-1.223.515l.266.363c.232-.164.466-.29.691-.369.119-.048.232-.079.352-.101.113-.02.228-.024.348-.024.26 0 .473.046.632.145.158.1.239.232.239.391a.385.385 0 0 1-.193.353c-.125.071-.332.104-.611.104h-.226v.404h.152c.379 0 .665.052.853.151.19.099.284.251.284.443 0 .203-.118.377-.364.521-.246.146-.56.219-.933.219a2.07 2.07 0 0 1-.844-.165c-.261-.111-.525-.292-.806-.544"/><path fill="#F7F8F9" d="M56.746 39.418h55.021v1.15H56.746z"/><path fill="#EF423E" d="M111.767 39.418h56.99v1.15h-56.99z"/><path fill="#818285" d="M111.821 40.624H56.689v-1.262h55.132v1.262zm-55.019-.111h54.907v-1.039H56.802v1.039z"/><path fill="#4560AC" d="M0 39.418h56.746v1.15H0z"/></svg>